# xmcd
#
# Track frame offsets: 
#        150
#        18355
#        28700
#        55875
#        83315
#        100340
#        115782
#        140427
#        162572
#        176455
#        192045
#
# Disc length: 2686 seconds
#
# Revision: 0
# Processed by: cddbd v1.5.2PL0 Copyright (c) Steve Scherf et al.
# Submitted via: ExactAudioCopy v0.95b3
#
DISCID=820a7c0b
DTITLE=Eric Burdon and The Animals  - Winds Of Change-The Twain Shall 
DTITLE=Meet - Disc 1 [FLAC]
DYEAR=1900
DGENRE=
TTITLE0=Eric Burdon and The Animals - Winds Of Change
TTITLE1=Eric Burdon and The Animals - Poem By The Sea
TTITLE2=Eric Burdon and The Animals - Paint It Black
TTITLE3=Eric Burdon and The Animals - The Black Plague
TTITLE4=Eric Burdon and The Animals - Yes I Am Experienced
TTITLE5=Eric Burdon and The Animals - San Franciscan Nights
TTITLE6=Eric Burdon and The Animals - Man - Woman
TTITLE7=Eric Burdon and The Animals - Hotel Hell
TTITLE8=Eric Burdon and The Animals - Good Times
TTITLE9=Eric Burdon and The Animals - Anything
TTITLE10=Eric Burdon and The Animals - It's All Meat
EXTD=
EXTT0=
EXTT1=
EXTT2=
EXTT3=
EXTT4=
EXTT5=
EXTT6=
EXTT7=
EXTT8=
EXTT9=
EXTT10=
PLAYORDER=
